# xmcd
#
# Track frame offsets:
#	150
#	17364
#	36437
#	49266
#	69513
#	84544
#	103026
#	117613
#	137027
#	154129
#	169848
#	184989
#
# Disc length: 2755 seconds
#
# Revision: 1
# Processed by: cddbd v1.5.2PL0 Copyright (c) Steve Scherf et al.
# Submitted via: audiograbber 1.83.01
#
DISCID=a60ac10c
DTITLE=Dean Brody - Crop Circles
DYEAR=2013
DGENRE=Country
TTITLE0=Four Wheel Drive
TTITLE1=Bounty (Feat. Lindi Orteaga)
TTITLE2=Sand in My Soul
TTITLE3=Crop Circles
TTITLE4=Mountain Man
TTITLE5=Another Man's Gold
TTITLE6=Back to the Front Porch
TTITLE7=Marianne
TTITLE8=The Little Things About Us
TTITLE9=My Last Broken Heart
TTITLE10=The Old Sand Bar
TTITLE11=Kansas Cried
EXTD=
EXTT0=
EXTT1=
EXTT2=
EXTT3=
EXTT4=
EXTT5=
EXTT6=
EXTT7=
EXTT8=
EXTT9=
EXTT10=
EXTT11=
PLAYORDER=
